<svg xmlns="http://www.w3.org/2000/svg" width="640" height="62" viewBox="0 0 640 62">
  <metadata><?xpacket begin="﻿" id="W5M0MpCehiHzreSzNTczkc9d"?>
<x:xmpmeta xmlns:x="adobe:ns:meta/" x:xmptk="Adobe XMP Core 5.6-c142 79.160924, 2017/07/13-01:06:39        ">
   <rdf:RDF xmlns:rdf="http://www.w3.org/1999/02/22-rdf-syntax-ns#">
      <rdf:Description rdf:about=""/>
   </rdf:RDF>
</x:xmpmeta>
                                                                                                    
                                                                                                    
                                                                                                    
                                                                                                    
                                                                                                    
                                                                                                    
                                                                                                    
                                                                                                    
                                                                                                    
                                                                                                    
                                                                                                    
                                                                                                    
                                                                                                    
                                                                                                    
                                                                                                    
                                                                                                    
                                                                                                    
                                                                                                    
                                                                                                    
                                                                                                    
                           
<?xpacket end="w"?></metadata>
<defs>
    <style>
      .cls-1 {
        fill: #fff;
        fill-rule: evenodd;
      }
    </style>
  </defs>
  <path id="BEAUTYSYSTEM" class="cls-1" d="M37.25,31.6a12.864,12.864,0,0,0-3.45-2.025,6.244,6.244,0,0,0,1.35-.9,10.387,10.387,0,0,0,2.813-3.863A12.656,12.656,0,0,0,39.05,19.6,15.186,15.186,0,0,0,34.325,7.975a13.564,13.564,0,0,0-5.1-3.075,20.938,20.938,0,0,0-6.45-.9H1.25V58h22.8a25.828,25.828,0,0,0,7.613-.9,14.154,14.154,0,0,0,5.212-3.075q4.649-4.349,4.65-12.525a13.911,13.911,0,0,0-1.163-5.55A11.588,11.588,0,0,0,37.25,31.6h0ZM22.7,13.525A5.88,5.88,0,0,1,27.05,15.1a5.789,5.789,0,0,1,1.65,4.275,5.308,5.308,0,0,1-1.275,3.9,6.389,6.389,0,0,1-4.725,1.8H11.6V13.525H22.7ZM29.225,46.45a7.222,7.222,0,0,1-5.1,1.95H11.6V34.6H24.125a7.114,7.114,0,0,1,5.25,1.8,6.9,6.9,0,0,1,1.875,5.1,6.576,6.576,0,0,1-2.025,4.95h0Zm61.2-32.925V4H55.174V58h35.25V48.475H65.374V34.6h20.55V25.075H65.374V13.525h25.05ZM138.8,58h10.5L132.8,4H117.574l-16.5,54h10.5l3.45-11.25h20.325ZM117.874,37.225l7.2-23.625,7.275,23.625H117.874ZM203.9,4h-10.35V37.6a15.307,15.307,0,0,1-.3,3.15A11.62,11.62,0,0,1,182,49.525a11.651,11.651,0,0,1-7.087-2.288,10.944,10.944,0,0,1-4.163-5.887,14.271,14.271,0,0,1-.45-3.75V4l-10.35.075V37.75a25.353,25.353,0,0,0,.525,5.4,18.554,18.554,0,0,0,7.35,11.813A23.6,23.6,0,0,0,182,59.125a22.792,22.792,0,0,0,13.95-4.275A19.278,19.278,0,0,0,203.374,43a24.634,24.634,0,0,0,.525-5.25V4Zm55.65,0H215.3v9.525h17.025V58h10.2V13.525h17.025V4Zm43.724,0-11.7,20.325L279.873,4H267.948L286.4,36.025V58h10.35V36.025L315.2,4H303.273Zm61.2,14.775A19.763,19.763,0,0,0,354.2,5.5a24.76,24.76,0,0,0-11.325-2.625q-8.7,0-14.025,3.9a15.288,15.288,0,0,0-4.5,5.213A14.1,14.1,0,0,0,322.7,18.7a16.955,16.955,0,0,0,.9,5.738,11.8,11.8,0,0,0,3,4.538,13.468,13.468,0,0,0,4.275,2.737Q333.348,32.725,337.7,34l10.05,2.925a29.323,29.323,0,0,1,2.887.975,6.555,6.555,0,0,1,1.913,1.2,4.719,4.719,0,0,1,1.65,3.75,5.652,5.652,0,0,1-2.475,4.5A10.875,10.875,0,0,1,348.085,49a16.942,16.942,0,0,1-4.462.6,12.544,12.544,0,0,1-5.1-1.087,13.847,13.847,0,0,1-4.275-2.888,10.283,10.283,0,0,1-1.913-2.7,12.474,12.474,0,0,1-1.087-3L320.6,41.5a19.41,19.41,0,0,0,4.725,10.35q6.525,7.276,17.925,7.275a31.251,31.251,0,0,0,8.962-1.2,18.9,18.9,0,0,0,7.163-3.975,18.312,18.312,0,0,0,4.087-5.062,12.01,12.01,0,0,0,1.463-5.738,21.473,21.473,0,0,0-.75-6.187,11.587,11.587,0,0,0-2.85-4.612,14.077,14.077,0,0,0-4.463-3A43.075,43.075,0,0,0,350,26.875l-9.375-2.55q-4.8-1.35-6.15-2.925a4.215,4.215,0,0,1-1.05-3,4.31,4.31,0,0,1,.825-2.475,6.539,6.539,0,0,1,2.1-1.95,11.729,11.729,0,0,1,5.925-1.5,12.02,12.02,0,0,1,6.825,1.95,12.194,12.194,0,0,1,2.775,2.775,8.975,8.975,0,0,1,1.575,3.45ZM405.647,4l-11.7,20.325L382.247,4H370.322l18.45,32.025V58h10.35V36.025L417.572,4H405.647Zm61.2,14.775A19.763,19.763,0,0,0,456.572,5.5a24.76,24.76,0,0,0-11.325-2.625q-8.7,0-14.025,3.9a15.288,15.288,0,0,0-4.5,5.213,14.116,14.116,0,0,0-1.65,6.712,16.955,16.955,0,0,0,.9,5.738,11.8,11.8,0,0,0,3,4.538,13.468,13.468,0,0,0,4.275,2.737q2.475,1.013,6.825,2.288l10.05,2.925a29.447,29.447,0,0,1,2.888.975,6.563,6.563,0,0,1,1.912,1.2,4.719,4.719,0,0,1,1.65,3.75,5.652,5.652,0,0,1-2.475,4.5A10.879,10.879,0,0,1,450.46,49a16.955,16.955,0,0,1-4.463.6,12.544,12.544,0,0,1-5.1-1.087,13.847,13.847,0,0,1-4.275-2.888,10.28,10.28,0,0,1-1.912-2.7,12.479,12.479,0,0,1-1.088-3L422.972,41.5A19.41,19.41,0,0,0,427.7,51.85q6.525,7.276,17.925,7.275a31.263,31.263,0,0,0,8.963-1.2,18.9,18.9,0,0,0,7.162-3.975,18.3,18.3,0,0,0,4.088-5.062A12.009,12.009,0,0,0,467.3,43.15a21.473,21.473,0,0,0-.75-6.187,11.587,11.587,0,0,0-2.85-4.612,14.059,14.059,0,0,0-4.462-3,43.088,43.088,0,0,0-6.863-2.475L443,24.325q-4.8-1.35-6.15-2.925a4.215,4.215,0,0,1-1.05-3,4.31,4.31,0,0,1,.825-2.475,6.539,6.539,0,0,1,2.1-1.95,11.729,11.729,0,0,1,5.925-1.5,12.02,12.02,0,0,1,6.825,1.95,12.194,12.194,0,0,1,2.775,2.775,8.975,8.975,0,0,1,1.575,3.45ZM519.947,4H475.7v9.525h17.025V58h10.2V13.525h17.025V4ZM566.6,13.525V4h-35.25V58H566.6V48.475h-25.05V34.6H562.1V25.075h-20.55V13.525H566.6ZM635,4h-9.15L608,39.85,590.146,4H581V58h9.526V25.825L606.2,58h3.6L625.47,25.75V58H635V4Z"/>
</svg>
