<svg width="547.8125px" height="180.79999999999998px" xmlns="http://www.w3.org/2000/svg" viewBox="-23.90625 -15.399999999999991 547.8125 180.79999999999998" style="background: none;" preserveAspectRatio="xMidYMid"><defs><filter id="editing-extrusion" x="-100%" y="-100%" width="300%" height="300%"><feFlood result="color1" flood-color="#ffffff"></feFlood><feConvolveMatrix order="1,1" divisor="1" kernelMatrix="1" in="SourceAlpha" result="extrude"></feConvolveMatrix><feComposite in="color1" in2="extrude" result="comp-extrude" operator="in"></feComposite><feOffset dx="0.5" dy="0.5" in="comp-extrude" result="offset-extrude"></feOffset><feMerge><feMergeNode in="offset-extrude"></feMergeNode><feMergeNode in="SourceGraphic"></feMergeNode></feMerge></filter></defs><g filter="url(#editing-extrusion)"><g transform="translate(55.89998769760132, 102.49500274658203)"><path d="M9.63-34.42L9.63-22.46L14.73-22.46L14.73-22.46Q16.84-22.46 18.37-22.92L18.37-22.92L18.37-22.92Q19.90-23.38 20.90-24.21L20.90-24.21L20.90-24.21Q21.90-25.03 22.39-26.16L22.39-26.16L22.39-26.16Q22.89-27.28 22.89-28.65L22.89-28.65L22.89-28.65Q22.89-31.57 21.18-33.06L21.18-33.06L21.18-33.06Q19.48-34.56 15.50-34.56L15.50-34.56L15.50-34.56Q14.73-34.56 13.87-34.54L13.87-34.54L13.87-34.54Q13.01-34.52 12.20-34.51L12.20-34.51L12.20-34.51Q11.39-34.49 10.71-34.47L10.71-34.47L10.71-34.47Q10.02-34.45 9.63-34.42L9.63-34.42ZM4.61-11.95L4.61-26.30L4.61-26.30Q4.61-28.23 4.61-30.08L4.61-30.08L4.61-30.08Q4.61-31.92 4.57-33.50L4.57-33.50L4.57-33.50Q4.54-35.09 4.45-36.35L4.45-36.35L4.45-36.35Q4.36-37.62 4.22-38.39L4.22-38.39L4.22-38.39Q5.06-38.43 6.36-38.48L6.36-38.48L6.36-38.48Q7.66-38.53 9.19-38.57L9.19-38.57L9.19-38.57Q10.72-38.60 12.41-38.62L12.41-38.62L12.41-38.62Q14.10-38.64 15.75-38.64L15.75-38.64L15.75-38.64Q18.70-38.64 20.99-38.18L20.99-38.18L20.99-38.18Q23.27-37.72 24.84-36.63L24.84-36.63L24.84-36.63Q26.40-35.54 27.21-33.79L27.21-33.79L27.21-33.79Q28.02-32.03 28.02-29.46L28.02-29.46L28.02-29.46Q28.02-27.81 27.51-26.47L27.51-26.47L27.51-26.47Q27-25.14 26.14-24.10L26.14-24.10L26.14-24.10Q25.28-23.06 24.10-22.31L24.10-22.31L24.10-22.31Q22.92-21.55 21.59-21.02L21.59-21.02L21.59-21.02Q23.10-20.60 24.59-19.92L24.59-19.92L24.59-19.92Q26.09-19.23 27.28-18.09L27.28-18.09L27.28-18.09Q28.48-16.95 29.23-15.22L29.23-15.22L29.23-15.22Q29.99-13.50 29.99-11.04L29.99-11.04L29.99-11.04Q29.99-8.65 29.20-6.59L29.20-6.59L29.20-6.59Q28.41-4.54 26.72-3.01L26.72-3.01L26.72-3.01Q25.03-1.48 22.36-0.60L22.36-0.60L22.36-0.60Q19.69 0.28 15.93 0.28L15.93 0.28L15.93 0.28Q13.92 0.28 12.02 0.26L12.02 0.26L12.02 0.26Q10.13 0.25 8.58 0.19L8.58 0.19L8.58 0.19Q7.03 0.14 5.89 0.11L5.89 0.11L5.89 0.11Q4.75 0.07 4.22 0L4.22 0L4.22 0Q4.36-0.77 4.45-2.02L4.45-2.02L4.45-2.02Q4.54-3.27 4.57-4.83L4.57-4.83L4.57-4.83Q4.61-6.40 4.61-8.21L4.61-8.21L4.61-8.21Q4.61-10.02 4.61-11.95L4.61-11.95ZM9.63-18.39L9.63-4.08L9.63-4.08Q10.34-4.04 12.08-3.99L12.08-3.99L12.08-3.99Q13.82-3.94 16.03-3.94L16.03-3.94L16.03-3.94Q17.72-3.94 19.30-4.29L19.30-4.29L19.30-4.29Q20.88-4.64 22.13-5.45L22.13-5.45L22.13-5.45Q23.38-6.26 24.12-7.63L24.12-7.63L24.12-7.63Q24.86-9 24.86-11.04L24.86-11.04L24.86-11.04Q24.86-14.70 22.62-16.54L22.62-16.54L22.62-16.54Q20.39-18.39 15.75-18.39L15.75-18.39L9.63-18.39ZM59.80-12.76L41.13-12.76L41.13-12.76Q41.20-10.44 41.85-8.74L41.85-8.74L41.85-8.74Q42.50-7.03 43.61-5.91L43.61-5.91L43.61-5.91Q44.72-4.78 46.23-4.22L46.23-4.22L46.23-4.22Q47.74-3.66 49.54-3.66L49.54-3.66L49.54-3.66Q52.10-3.66 54.56-4.24L54.56-4.24L54.56-4.24Q57.02-4.82 59.45-6.33L59.45-6.33L59.94-1.97L59.94-1.97Q58.54-1.23 57.22-0.74L57.22-0.74L57.22-0.74Q55.90-0.25 54.54 0.07L54.54 0.07L54.54 0.07Q53.19 0.39 51.80 0.53L51.80 0.53L51.80 0.53Q50.41 0.67 48.90 0.67L48.90 0.67L48.90 0.67Q46.37 0.67 44.09-0.21L44.09-0.21L44.09-0.21Q41.80-1.09 40.06-2.81L40.06-2.81L40.06-2.81Q38.32-4.54 37.30-7.10L37.30-7.10L37.30-7.10Q36.28-9.67 36.28-13.01L36.28-13.01L36.28-13.01Q36.28-16.28 37.16-18.91L37.16-18.91L37.16-18.91Q38.04-21.55 39.67-23.43L39.67-23.43L39.67-23.43Q41.31-25.31 43.65-26.33L43.65-26.33L43.65-26.33Q45.98-27.35 48.90-27.35L48.90-27.35L48.90-27.35Q52.17-27.35 54.28-26.23L54.28-26.23L54.28-26.23Q56.39-25.10 57.62-23.31L57.62-23.31L57.62-23.31Q58.85-21.52 59.33-19.27L59.33-19.27L59.33-19.27Q59.80-17.02 59.80-14.80L59.80-14.80L59.80-12.76ZM48.52-23.38L48.52-23.38L48.52-23.38Q45.60-23.38 43.75-21.71L43.75-21.71L43.75-21.71Q41.91-20.04 41.34-16.42L41.34-16.42L55.05-16.42L55.05-16.42Q55.05-18.14 54.56-19.44L54.56-19.44L54.56-19.44Q54.07-20.74 53.21-21.62L53.21-21.62L53.21-21.62Q52.35-22.50 51.13-22.94L51.13-22.94L51.13-22.94Q49.92-23.38 48.52-23.38ZM87.57-19.97L87.57-9.70L87.57-9.70Q87.57-6.86 88.12-4.54L88.12-4.54L88.12-4.54Q88.66-2.21 89.54 0L89.54 0L84.83 0L84.83 0Q84.55-0.63 84.16-1.71L84.16-1.71L84.16-1.71Q83.78-2.78 83.50-4.08L83.50-4.08L83.50-4.08Q81.14-1.58 78.61-0.46L78.61-0.46L78.61-0.46Q76.08 0.67 73.62 0.67L73.62 0.67L73.62 0.67Q71.75 0.67 70.19 0.07L70.19 0.07L70.19 0.07Q68.63-0.53 67.50-1.55L67.50-1.55L67.50-1.55Q66.38-2.57 65.72-3.90L65.72-3.90L65.72-3.90Q65.07-5.24 65.07-6.71L65.07-6.71L65.07-6.71Q65.07-8.19 65.57-9.74L65.57-9.74L65.57-9.74Q66.06-11.29 67.27-12.59L67.27-12.59L67.27-12.59Q68.48-13.89 70.51-14.82L70.51-14.82L70.51-14.82Q72.53-15.75 75.59-16.07L75.59-16.07L75.59-16.07Q76.25-16.14 77.31-16.22L77.31-16.22L77.31-16.22Q78.36-16.31 79.42-16.42L79.42-16.42L79.42-16.42Q80.47-16.52 81.39-16.59L81.39-16.59L81.39-16.59Q82.30-16.66 82.72-16.70L82.72-16.70L82.72-18.67L82.72-18.67Q82.72-21.06 81.04-22.10L81.04-22.10L81.04-22.10Q79.35-23.13 76.39-23.13L76.39-23.13L76.39-23.13Q74.29-23.13 72.21-22.31L72.21-22.31L72.21-22.31Q70.14-21.48 67.82-19.83L67.82-19.83L67.82-19.83Q67.85-20.29 67.87-20.99L67.87-20.99L67.87-20.99Q67.89-21.69 67.92-22.43L67.92-22.43L67.92-22.43Q67.96-23.17 67.99-23.87L67.99-23.87L67.99-23.87Q68.03-24.57 68.10-25.00L68.10-25.00L68.10-25.00Q69.08-25.42 70.14-25.84L70.14-25.84L70.14-25.84Q71.19-26.26 72.33-26.60L72.33-26.60L72.33-26.60Q73.48-26.93 74.78-27.14L74.78-27.14L74.78-27.14Q76.08-27.35 77.55-27.35L77.55-27.35L77.55-27.35Q79.80-27.35 81.67-26.79L81.67-26.79L81.67-26.79Q83.53-26.23 84.83-25.22L84.83-25.22L84.83-25.22Q86.13-24.22 86.85-22.89L86.85-22.89L86.85-22.89Q87.57-21.55 87.57-19.97L87.57-19.97ZM82.72-8.54L82.72-13.01L82.72-13.01Q82.23-13.01 81.32-12.92L81.32-12.92L81.32-12.92Q80.40-12.83 79.40-12.73L79.40-12.73L79.40-12.73Q78.40-12.62 77.45-12.52L77.45-12.52L77.45-12.52Q76.50-12.41 75.87-12.34L75.87-12.34L75.87-12.34Q74.18-12.13 73.02-11.67L73.02-11.67L73.02-11.67Q71.86-11.21 71.14-10.55L71.14-10.55L71.14-10.55Q70.42-9.88 70.10-9.07L70.10-9.07L70.10-9.07Q69.79-8.26 69.79-7.35L69.79-7.35L69.79-7.35Q69.79-5.55 71.02-4.61L71.02-4.61L71.02-4.61Q72.25-3.66 74.39-3.66L74.39-3.66L74.39-3.66Q75.41-3.66 76.39-3.83L76.39-3.83L76.39-3.83Q77.38-4.01 78.38-4.52L78.38-4.52L78.38-4.52Q79.38-5.03 80.46-5.99L80.46-5.99L80.46-5.99Q81.53-6.96 82.72-8.54L82.72-8.54ZM120.69 0L116.23 0L116.23 0Q115.84-0.91 115.42-2.34L115.42-2.34L115.42-2.34Q115.00-3.76 114.79-5.24L114.79-5.24L114.79-5.24Q112.39-2.36 109.85-0.84L109.85-0.84L109.85-0.84Q107.30 0.67 104.52 0.67L104.52 0.67L104.52 0.67Q96.12 0.67 96.12-10.65L96.12-10.65L96.12-18.39L96.12-18.39Q96.12-19.65 96.10-20.67L96.10-20.67L96.10-20.67Q96.08-21.69 96.03-22.68L96.03-22.68L96.03-22.68Q95.98-23.66 95.87-24.66L95.87-24.66L95.87-24.66Q95.77-25.66 95.59-26.82L95.59-26.82L101.00-26.82L101.00-12.23L101.00-12.23Q101.00-9.98 101.23-8.37L101.23-8.37L101.23-8.37Q101.46-6.75 101.97-5.70L101.97-5.70L101.97-5.70Q102.48-4.64 103.32-4.15L103.32-4.15L103.32-4.15Q104.17-3.66 105.43-3.66L105.43-3.66L105.43-3.66Q106.59-3.66 107.91-4.36L107.91-4.36L107.91-4.36Q109.23-5.06 110.43-6.13L110.43-6.13L110.43-6.13Q111.62-7.21 112.61-8.51L112.61-8.51L112.61-8.51Q113.59-9.81 114.12-11.04L114.12-11.04L114.12-18.39L114.12-18.39Q114.12-19.69 114.10-20.72L114.10-20.72L114.10-20.72Q114.08-21.76 114.03-22.71L114.03-22.71L114.03-22.71Q113.98-23.66 113.87-24.64L113.87-24.64L113.87-24.64Q113.77-25.63 113.63-26.82L113.63-26.82L119.00-26.82L119.00-11.81L119.00-11.81Q119.00-7.98 119.44-5.10L119.44-5.10L119.44-5.10Q119.88-2.21 120.69 0L120.69 0ZM123.96-22.36L123.96-26.16L129.23-26.16L129.23-34.70L134.12-34.70L134.12-26.16L142.66-26.16L142.66-22.36L134.12-22.36L134.12-10.27L134.12-10.27Q134.12-8.23 134.31-6.94L134.31-6.94L134.31-6.94Q134.51-5.66 134.91-4.92L134.91-4.92L134.91-4.92Q135.32-4.18 135.95-3.92L135.95-3.92L135.95-3.92Q136.58-3.66 137.46-3.66L137.46-3.66L137.46-3.66Q139.71-3.66 143.16-5.66L143.16-5.66L143.16-1.44L143.16-1.44Q141.36-0.28 139.69 0.19L139.69 0.19L139.69 0.19Q138.02 0.67 136.65 0.67L136.65 0.67L136.65 0.67Q135.11 0.67 133.75 0.32L133.75 0.32L133.75 0.32Q132.40-0.04 131.40-0.91L131.40-0.91L131.40-0.91Q130.39-1.79 129.81-3.29L129.81-3.29L129.81-3.29Q129.23-4.78 129.23-7.07L129.23-7.07L129.23-22.36L123.96-22.36ZM168.68-17.51L162.35 0L162.35 0Q160.98 3.76 159.66 6.17L159.66 6.17L159.66 6.17Q158.34 8.58 156.99 9.95L156.99 9.95L156.99 9.95Q155.64 11.32 154.18 11.85L154.18 11.85L154.18 11.85Q152.72 12.38 151.03 12.38L151.03 12.38L151.03 12.38Q149.24 12.38 147.66 11.78L147.66 11.78L147.66 11.78Q146.07 11.18 144.60 10.13L144.60 10.13L146.14 5.91L146.14 5.91Q146.57 6.26 147.15 6.61L147.15 6.61L147.15 6.61Q147.73 6.96 148.38 7.24L148.38 7.24L148.38 7.24Q149.03 7.52 149.71 7.70L149.71 7.70L149.71 7.70Q150.40 7.88 151.03 7.88L151.03 7.88L151.03 7.88Q151.84 7.88 152.60 7.61L152.60 7.61L152.60 7.61Q153.35 7.35 154.14 6.56L154.14 6.56L154.14 6.56Q154.93 5.77 155.74 4.38L155.74 4.38L155.74 4.38Q156.55 2.99 157.46 0.70L157.46 0.70L150.12-17.51L150.12-17.51Q149.41-19.30 148.43-21.52L148.43-21.52L148.43-21.52Q147.45-23.73 145.90-26.82L145.90-26.82L151.17-26.82L159.68-5.31L159.68-5.31Q160.17-6.71 160.77-8.40L160.77-8.40L160.77-8.40Q161.37-10.09 161.98-11.87L161.98-11.87L161.98-11.87Q162.60-13.64 163.21-15.45L163.21-15.45L163.21-15.45Q163.83-17.26 164.43-18.91L164.43-18.91L164.43-18.91Q165.80-22.82 167.20-26.82L167.20-26.82L172.48-26.82L172.48-26.82Q171.11-23.77 170.21-21.53L170.21-21.53L170.21-21.53Q169.31-19.30 168.68-17.51L168.68-17.51ZM182.64-14.87L182.64-11.43L182.64-11.43Q182.64-7.52 182.67-4.54L182.67-4.54L182.67-4.54Q182.71-1.55 182.99 0L182.99 0L177.22 0L177.22 0Q177.50-1.58 177.56-4.55L177.56-4.55L177.56-4.55Q177.61-7.52 177.61-11.43L177.61-11.43L177.61-26.30L177.61-26.30Q177.61-28.23 177.61-30.08L177.61-30.08L177.61-30.08Q177.61-31.92 177.57-33.50L177.57-33.50L177.57-33.50Q177.54-35.09 177.45-36.35L177.45-36.35L177.45-36.35Q177.36-37.62 177.22-38.39L177.22-38.39L177.22-38.39Q178.84-38.43 180.70-38.50L180.70-38.50L180.70-38.50Q182.29-38.57 184.29-38.60L184.29-38.60L184.29-38.60Q186.29-38.64 188.40-38.64L188.40-38.64L188.40-38.64Q191.57-38.64 194.15-37.92L194.15-37.92L194.15-37.92Q196.73-37.20 198.54-35.74L198.54-35.74L198.54-35.74Q200.36-34.28 201.34-32.12L201.34-32.12L201.34-32.12Q202.32-29.95 202.32-27.07L202.32-27.07L202.32-27.07Q202.32-24.19 201.36-21.87L201.36-21.87L201.36-21.87Q200.39-19.55 198.60-17.93L198.60-17.93L198.60-17.93Q196.80-16.31 194.22-15.45L194.22-15.45L194.22-15.45Q191.64-14.59 188.40-14.59L188.40-14.59L188.40-14.59Q186.93-14.59 185.40-14.64L185.40-14.64L185.40-14.64Q183.87-14.70 182.64-14.87L182.64-14.87ZM182.64-34.35L182.64-18.95L182.64-18.95Q183.87-18.77 185.19-18.72L185.19-18.72L185.19-18.72Q186.50-18.67 187.98-18.67L187.98-18.67L187.98-18.67Q190.76-18.67 192.57-19.32L192.57-19.32L192.57-19.32Q194.38-19.97 195.45-21.04L195.45-21.04L195.45-21.04Q196.52-22.11 196.95-23.54L196.95-23.54L196.95-23.54Q197.37-24.96 197.37-26.54L197.37-26.54L197.37-26.54Q197.37-28.13 196.91-29.55L196.91-29.55L196.91-29.55Q196.45-30.97 195.38-32.06L195.38-32.06L195.38-32.06Q194.31-33.15 192.53-33.79L192.53-33.79L192.53-33.79Q190.76-34.42 188.12-34.42L188.12-34.42L188.12-34.42Q187.21-34.42 186.47-34.42L186.47-34.42L186.47-34.42Q185.73-34.42 185.10-34.40L185.10-34.40L185.10-34.40Q184.46-34.38 183.88-34.37L183.88-34.37L183.88-34.37Q183.30-34.35 182.64-34.35L182.64-34.35ZM214.28-42.08L214.28-12.48L214.28-12.48Q214.28-11.21 214.31-9.51L214.31-9.51L214.31-9.51Q214.35-7.80 214.42-6.05L214.42-6.05L214.42-6.05Q214.49-4.29 214.58-2.69L214.58-2.69L214.58-2.69Q214.66-1.09 214.80 0L214.80 0L209.43 0L209.43-29.71L209.43-29.71Q209.43-33.57 209.29-36.69L209.29-36.69L209.29-36.69Q209.14-39.80 208.86-42.08L208.86-42.08L214.28-42.08ZM244.30-19.97L244.30-9.70L244.30-9.70Q244.30-6.86 244.85-4.54L244.85-4.54L244.85-4.54Q245.39-2.21 246.27 0L246.27 0L241.56 0L241.56 0Q241.28-0.63 240.89-1.71L240.89-1.71L240.89-1.71Q240.50-2.78 240.22-4.08L240.22-4.08L240.22-4.08Q237.87-1.58 235.34-0.46L235.34-0.46L235.34-0.46Q232.80 0.67 230.34 0.67L230.34 0.67L230.34 0.67Q228.48 0.67 226.92 0.07L226.92 0.07L226.92 0.07Q225.35-0.53 224.23-1.55L224.23-1.55L224.23-1.55Q223.10-2.57 222.45-3.90L222.45-3.90L222.45-3.90Q221.80-5.24 221.80-6.71L221.80-6.71L221.80-6.71Q221.80-8.19 222.29-9.74L222.29-9.74L222.29-9.74Q222.79-11.29 224.00-12.59L224.00-12.59L224.00-12.59Q225.21-13.89 227.23-14.82L227.23-14.82L227.23-14.82Q229.25-15.75 232.31-16.07L232.31-16.07L232.31-16.07Q232.98-16.14 234.04-16.22L234.04-16.22L234.04-16.22Q235.09-16.31 236.14-16.42L236.14-16.42L236.14-16.42Q237.20-16.52 238.11-16.59L238.11-16.59L238.11-16.59Q239.03-16.66 239.45-16.70L239.45-16.70L239.45-18.67L239.45-18.67Q239.45-21.06 237.76-22.10L237.76-22.10L237.76-22.10Q236.07-23.13 233.12-23.13L233.12-23.13L233.12-23.13Q231.01-23.13 228.94-22.31L228.94-22.31L228.94-22.31Q226.86-21.48 224.54-19.83L224.54-19.83L224.54-19.83Q224.58-20.29 224.60-20.99L224.60-20.99L224.60-20.99Q224.61-21.69 224.65-22.43L224.65-22.43L224.65-22.43Q224.68-23.17 224.72-23.87L224.72-23.87L224.72-23.87Q224.75-24.57 224.82-25.00L224.82-25.00L224.82-25.00Q225.81-25.42 226.86-25.84L226.86-25.84L226.86-25.84Q227.92-26.26 229.06-26.60L229.06-26.60L229.06-26.60Q230.20-26.93 231.50-27.14L231.50-27.14L231.50-27.14Q232.80-27.35 234.28-27.35L234.28-27.35L234.28-27.35Q236.53-27.35 238.39-26.79L238.39-26.79L238.39-26.79Q240.26-26.23 241.56-25.22L241.56-25.22L241.56-25.22Q242.86-24.22 243.58-22.89L243.58-22.89L243.58-22.89Q244.30-21.55 244.30-19.97L244.30-19.97ZM239.45-8.54L239.45-13.01L239.45-13.01Q238.96-13.01 238.04-12.92L238.04-12.92L238.04-12.92Q237.13-12.83 236.13-12.73L236.13-12.73L236.13-12.73Q235.13-12.62 234.18-12.52L234.18-12.52L234.18-12.52Q233.23-12.41 232.59-12.34L232.59-12.34L232.59-12.34Q230.91-12.13 229.75-11.67L229.75-11.67L229.75-11.67Q228.59-11.21 227.87-10.55L227.87-10.55L227.87-10.55Q227.14-9.88 226.83-9.07L226.83-9.07L226.83-9.07Q226.51-8.26 226.51-7.35L226.51-7.35L226.51-7.35Q226.51-5.55 227.74-4.61L227.74-4.61L227.74-4.61Q228.97-3.66 231.12-3.66L231.12-3.66L231.12-3.66Q232.14-3.66 233.12-3.83L233.12-3.83L233.12-3.83Q234.11-4.01 235.11-4.52L235.11-4.52L235.11-4.52Q236.11-5.03 237.18-5.99L237.18-5.99L237.18-5.99Q238.25-6.96 239.45-8.54L239.45-8.54ZM249.54-22.36L249.54-26.16L254.81-26.16L254.81-34.70L259.70-34.70L259.70-26.16L268.24-26.16L268.24-22.36L259.70-22.36L259.70-10.27L259.70-10.27Q259.70-8.23 259.89-6.94L259.89-6.94L259.89-6.94Q260.09-5.66 260.49-4.92L260.49-4.92L260.49-4.92Q260.89-4.18 261.53-3.92L261.53-3.92L261.53-3.92Q262.16-3.66 263.04-3.66L263.04-3.66L263.04-3.66Q265.29-3.66 268.73-5.66L268.73-5.66L268.73-1.44L268.73-1.44Q266.94-0.28 265.27 0.19L265.27 0.19L265.27 0.19Q263.60 0.67 262.23 0.67L262.23 0.67L262.23 0.67Q260.68 0.67 259.33 0.32L259.33 0.32L259.33 0.32Q257.98-0.04 256.97-0.91L256.97-0.91L256.97-0.91Q255.97-1.79 255.39-3.29L255.39-3.29L255.39-3.29Q254.81-4.78 254.81-7.07L254.81-7.07L254.81-22.36L249.54-22.36ZM271.72-22.36L271.72-26.16L277.03-26.16L277.03-30.76L277.03-30.76Q277.03-36.70 279.42-39.66L279.42-39.66L279.42-39.66Q281.81-42.61 286.10-42.61L286.10-42.61L286.10-42.61Q287.65-42.61 289.14-42.12L289.14-42.12L289.14-42.12Q290.64-41.63 291.87-40.75L291.87-40.75L290.67-36.53L290.67-36.53Q289.69-37.27 288.46-37.69L288.46-37.69L288.46-37.69Q287.23-38.11 286.10-38.11L286.10-38.11L286.10-38.11Q284.03-38.11 282.96-36.67L282.96-36.67L282.96-36.67Q281.88-35.23 281.88-31.78L281.88-31.78L281.88-26.16L288.98-26.16L288.98-22.36L281.88-22.36L281.88-12.97L281.88-12.97Q281.88-11.07 281.92-9.19L281.92-9.19L281.92-9.19Q281.95-7.31 282.06-5.63L282.06-5.63L282.06-5.63Q282.16-3.94 282.30-2.50L282.30-2.50L282.30-2.50Q282.45-1.05 282.66 0L282.66 0L277.03 0L277.03-22.36L271.72-22.36ZM292.89-13.29L292.89-13.29L292.89-13.29Q292.89-16.70 293.91-19.32L293.91-19.32L293.91-19.32Q294.93-21.94 296.67-23.73L296.67-23.73L296.67-23.73Q298.41-25.52 300.73-26.44L300.73-26.44L300.73-26.44Q303.05-27.35 305.65-27.35L305.65-27.35L305.65-27.35Q308.36-27.35 310.61-26.44L310.61-26.44L310.61-26.44Q312.86-25.52 314.47-23.73L314.47-23.73L314.47-23.73Q316.09-21.94 316.99-19.32L316.99-19.32L316.99-19.32Q317.88-16.70 317.88-13.29L317.88-13.29L317.88-13.29Q317.88-9.91 316.86-7.29L316.86-7.29L316.86-7.29Q315.84-4.68 314.10-2.92L314.10-2.92L314.10-2.92Q312.36-1.16 310.04-0.25L310.04-0.25L310.04-0.25Q307.72 0.67 305.12 0.67L305.12 0.67L305.12 0.67Q302.41 0.67 300.16-0.25L300.16-0.25L300.16-0.25Q297.91-1.16 296.30-2.92L296.30-2.92L296.30-2.92Q294.68-4.68 293.78-7.29L293.78-7.29L293.78-7.29Q292.89-9.91 292.89-13.29ZM297.74-13.29L297.74-13.29L297.74-13.29Q297.74-10.97 298.30-9.16L298.30-9.16L298.30-9.16Q298.86-7.35 299.87-6.10L299.87-6.10L299.87-6.10Q300.87-4.85 302.27-4.20L302.27-4.20L302.27-4.20Q303.68-3.55 305.37-3.55L305.37-3.55L305.37-3.55Q306.95-3.55 308.34-4.20L308.34-4.20L308.34-4.20Q309.73-4.85 310.76-6.10L310.76-6.10L310.76-6.10Q311.80-7.35 312.40-9.16L312.40-9.16L312.40-9.16Q313.00-10.97 313.00-13.29L313.00-13.29L313.00-13.29Q313.00-15.61 312.43-17.44L312.43-17.44L312.43-17.44Q311.87-19.27 310.87-20.53L310.87-20.53L310.87-20.53Q309.87-21.80 308.46-22.46L308.46-22.46L308.46-22.46Q307.05-23.13 305.37-23.13L305.37-23.13L305.37-23.13Q303.79-23.13 302.38-22.46L302.38-22.46L302.38-22.46Q300.97-21.80 299.95-20.53L299.95-20.53L299.95-20.53Q298.93-19.27 298.34-17.44L298.34-17.44L298.34-17.44Q297.74-15.61 297.74-13.29ZM329.34 0L324.46 0L324.46-16.17L324.46-16.17Q324.46-20.04 324.02-22.76L324.02-22.76L324.02-22.76Q323.58-25.49 323.16-26.82L323.16-26.82L327.90-26.82L327.90-26.82Q328.04-26.40 328.18-25.73L328.18-25.73L328.18-25.73Q328.32-25.07 328.46-24.33L328.46-24.33L328.46-24.33Q328.61-23.59 328.73-22.89L328.73-22.89L328.73-22.89Q328.85-22.18 328.92-21.69L328.92-21.69L328.92-21.69Q329.87-23.06 331.00-24.12L331.00-24.12L331.00-24.12Q332.12-25.17 333.25-25.89L333.25-25.89L333.25-25.89Q334.37-26.61 335.46-26.98L335.46-26.98L335.46-26.98Q336.55-27.35 337.43-27.35L337.43-27.35L337.43-27.35Q339.12-27.35 340.28-26.61L340.28-26.61L340.28-26.61Q341.44-25.88 342.16-24.66L342.16-24.66L342.16-24.66Q342.88-23.45 343.20-21.85L343.20-21.85L343.20-21.85Q343.51-20.25 343.51-18.53L343.51-18.53L339.33-17.61L339.33-17.61Q339.33-18.60 339.15-19.51L339.15-19.51L339.15-19.51Q338.98-20.43 338.61-21.11L338.61-21.11L338.61-21.11Q338.24-21.80 337.66-22.20L337.66-22.20L337.66-22.20Q337.08-22.61 336.30-22.61L336.30-22.61L336.30-22.61Q335.46-22.61 334.44-21.96L334.44-21.96L334.44-21.96Q333.42-21.30 332.42-20.27L332.42-20.27L332.42-20.27Q331.42-19.23 330.59-17.91L330.59-17.91L330.59-17.91Q329.77-16.59 329.34-15.26L329.34-15.26L329.34 0ZM368.61-17.37L368.61 0L363.73 0L363.73-14.98L363.73-14.98Q363.73-17.44 363.55-18.95L363.55-18.95L363.55-18.95Q363.38-20.46 362.94-21.30L362.94-21.30L362.94-21.30Q362.50-22.15 361.76-22.45L361.76-22.45L361.76-22.45Q361.02-22.75 359.93-22.75L359.93-22.75L359.93-22.75Q358.98-22.75 358.00-22.34L358.00-22.34L358.00-22.34Q357.01-21.94 356.13-21.23L356.13-21.23L356.13-21.23Q355.25-20.53 354.50-19.53L354.50-19.53L354.50-19.53Q353.74-18.53 353.21-17.37L353.21-17.37L353.21 0L348.36 0L348.36-16.17L348.36-16.17Q348.36-20.04 347.91-22.76L347.91-22.76L347.91-22.76Q347.45-25.49 347.06-26.82L347.06-26.82L351.77-26.82L351.77-26.82Q352.05-25.98 352.27-24.84L352.27-24.84L352.27-24.84Q352.48-23.70 352.65-22.75L352.65-22.75L352.65-22.75Q353.85-24.12 354.96-25.01L354.96-25.01L354.96-25.01Q356.06-25.91 357.13-26.44L357.13-26.44L357.13-26.44Q358.21-26.96 359.28-27.16L359.28-27.16L359.28-27.16Q360.35-27.35 361.48-27.35L361.48-27.35L361.48-27.35Q362.78-27.35 363.83-26.98L363.83-26.98L363.83-26.98Q364.89-26.61 365.70-26.02L365.70-26.02L365.70-26.02Q366.50-25.42 367.08-24.61L367.08-24.61L367.08-24.61Q367.66-23.80 368.02-22.96L368.02-22.96L368.02-22.96Q369.21-24.26 370.37-25.12L370.37-25.12L370.37-25.12Q371.53-25.98 372.64-26.47L372.64-26.47L372.64-26.47Q373.75-26.96 374.80-27.16L374.80-27.16L374.80-27.16Q375.86-27.35 376.88-27.35L376.88-27.35L376.88-27.35Q378.88-27.35 380.23-26.70L380.23-26.70L380.23-26.70Q381.59-26.05 382.43-24.79L382.43-24.79L382.43-24.79Q383.27-23.52 383.63-21.66L383.63-21.66L383.63-21.66Q383.98-19.79 383.98-17.37L383.98-17.37L383.98 0L379.13 0L379.13-14.45L379.13-14.45Q379.13-16.98 378.95-18.60L378.95-18.60L378.95-18.60Q378.77-20.21 378.33-21.15L378.33-21.15L378.33-21.15Q377.89-22.08 377.16-22.41L377.16-22.41L377.16-22.41Q376.42-22.75 375.33-22.75L375.33-22.75L375.33-22.75Q374.34-22.75 373.39-22.36L373.39-22.36L373.39-22.36Q372.45-21.97 371.57-21.27L371.57-21.27L371.57-21.27Q370.69-20.57 369.93-19.58L369.93-19.58L369.93-19.58Q369.18-18.60 368.61-17.37L368.61-17.37Z" fill="#ffffff"></path></g></g><style>text {
  font-size: 64px;
  font-family: Arial Black;
  dominant-baseline: central;
  text-anchor: middle;
}</style></svg>